<svg xmlns="http://www.w3.org/2000/svg" version="1.1" xmlns:xlink="http://www.w3.org/1999/xlink" xmlns:svgjs="http://svgjs.com/svgjs" width="512" height="512"><svg id="SvgjsSvg1000" data-name="Layer 1" xmlns="http://www.w3.org/2000/svg" version="1.1" viewBox="0 0 512 512">
  <defs>
    <style>
      .cls-1 {
        fill: #ff0;
      }

      .cls-1, .cls-2, .cls-3 {
        stroke-width: 0px;
      }

      .cls-2 {
        fill: #000;
      }

      .cls-3 {
        fill: #ffbe00;
      }
    </style>
  </defs>
  <g>
    <path class="cls-1" d="M252.5,386.62c-71.2,0-129.12-57.92-129.12-129.12s57.92-129.12,129.12-129.12,129.12,57.92,129.12,129.12-57.92,129.12-129.12,129.12Z"></path>
    <path class="cls-2" d="M252.5,128.76c34.39,0,66.72,13.39,91.03,37.71,24.32,24.32,37.71,56.65,37.71,91.03s-13.39,66.72-37.71,91.03c-24.32,24.32-56.65,37.71-91.03,37.71s-66.72-13.39-91.03-37.71c-24.32-24.32-37.71-56.65-37.71-91.03s13.39-66.72,37.71-91.03c24.32-24.32,56.65-37.71,91.03-37.71M252.5,128c-71.52,0-129.5,57.98-129.5,129.5s57.98,129.5,129.5,129.5,129.5-57.98,129.5-129.5-57.98-129.5-129.5-129.5h0Z"></path>
  </g>
  <g>
    <polygon class="cls-1" points="228.09 129.52 212.84 53.29 252.58 6.41 292.32 53.29 277.07 129.52 228.09 129.52"></polygon>
    <path class="cls-2" d="M252.58,7.16l39.22,46.26-15.13,75.61h-48.18l-15.13-75.61L252.58,7.16M252.58,5.66l-40.26,47.49,15.38,76.85h49.77l15.38-76.85L252.58,5.66h0Z"></path>
  </g>
  <g>
    <polygon class="cls-1" points="212.76 461.25 228.01 385.02 276.99 385.02 292.24 461.25 252.5 508.13 212.76 461.25"></polygon>
    <path class="cls-2" d="M276.59,385.51l15.13,75.61-39.22,46.26-39.22-46.26,15.13-75.61h48.18M277.38,384.54h-49.77l-15.38,76.85,40.26,47.49,40.26-47.49-15.38-76.85h0Z"></path>
  </g>
  <g>
    <polygon class="cls-1" points="380.14 281.99 380.14 233.01 456.36 217.76 503.24 257.5 456.36 297.24 380.14 281.99"></polygon>
    <path class="cls-2" d="M456.23,218.28l46.26,39.22-46.26,39.22-75.61-15.13v-48.18l75.61-15.13M456.5,217.24l-76.85,15.38v49.77l76.85,15.38,47.49-40.26-47.49-40.26h0Z"></path>
  </g>
  <g>
    <polygon class="cls-1" points="2.5 257.2 49.38 217.46 125.61 232.72 125.61 281.69 49.38 296.94 2.5 257.2"></polygon>
    <path class="cls-2" d="M49.52,217.98l75.61,15.13v48.18l-75.61,15.13L3.25,257.2l46.26-39.22M49.25,216.94L1.75,257.2l47.49,40.26,76.85-15.38v-49.77l-76.85-15.38h0Z"></path>
  </g>
  <g>
    <polygon class="cls-1" points="100.66 141.2 92.1 97.51 135.78 106.08 171.77 155.64 150.22 177.18 100.66 141.2"></polygon>
    <path class="cls-2" d="M92.79,98.2l42.68,8.37,35.59,49.01-20.89,20.89-49.01-35.59-8.37-42.68M91.41,96.82l8.76,44.69,50.11,36.38,22.2-22.2-36.38-50.11-44.69-8.76h0Z"></path>
  </g>
  <g>
    <polygon class="cls-1" points="334.7 157.49 370.68 107.93 414.37 99.37 405.8 143.05 356.25 179.04 334.7 157.49"></polygon>
    <path class="cls-2" d="M413.68,100.06l-8.37,42.68-49.01,35.59-20.89-20.89,35.59-49.01,42.68-8.37M415.06,98.68l-44.69,8.76-36.38,50.11,22.2,22.2,50.11-36.38,8.76-44.69h0Z"></path>
  </g>
  <g>
    <polygon class="cls-1" points="368.22 408.76 332.24 359.2 353.79 337.65 403.35 373.64 411.91 417.33 368.22 408.76"></polygon>
    <path class="cls-2" d="M353.84,338.36l49.01,35.59,8.37,42.68-42.68-8.37-35.59-49.01,20.89-20.89M353.73,336.94l-22.2,22.2,36.38,50.11,44.69,8.76-8.76-44.69-50.11-36.38h0Z"></path>
  </g>
  <g>
    <polygon class="cls-1" points="103.12 375.5 152.68 339.51 174.23 361.06 138.24 410.62 94.56 419.18 103.12 375.5"></polygon>
    <path class="cls-2" d="M152.63,340.22l20.89,20.89-35.59,49.01-42.68,8.37,8.37-42.68,49.01-35.59M152.74,338.8l-50.11,36.38-8.76,44.69,44.69-8.76,36.38-50.11-22.2-22.2h0Z"></path>
  </g>
  <g>
    <polygon class="cls-3" points="227.67 445.57 237.26 385.08 267.74 385.08 277.33 445.57 252.5 482.52 227.67 445.57"></polygon>
    <path class="cls-2" d="M267.27,385.63l9.49,59.82-24.26,36.1-24.26-36.1,9.49-59.82h29.54M268.2,384.54h-31.4l-9.7,61.16,25.4,37.8,25.4-37.8-9.7-61.16h0Z"></path>
  </g>
  <g>
    <polygon class="cls-3" points="237.26 129.46 227.67 68.97 252.5 32.02 277.33 68.97 267.74 129.46 237.26 129.46"></polygon>
    <path class="cls-2" d="M252.5,32.99l24.26,36.1-9.49,59.82h-29.54s-9.49-59.82-9.49-59.82l24.26-36.1M252.5,31.04l-25.4,37.8,9.7,61.16h31.4s9.7-61.16,9.7-61.16l-25.4-37.8h0Z"></path>
  </g>
  <g>
    <polygon class="cls-3" points="380.2 272.74 380.2 242.26 440.68 232.67 477.63 257.5 440.68 282.33 380.2 272.74"></polygon>
    <path class="cls-2" d="M440.56,233.24l36.1,24.26-36.1,24.26-59.82-9.49v-29.54l59.82-9.49M440.81,232.1l-61.16,9.7v31.4l61.16,9.7,37.8-25.4-37.8-25.4h0Z"></path>
  </g>
  <g>
    <polygon class="cls-3" points="27.81 257.42 64.77 232.59 125.25 242.18 125.25 272.66 64.77 282.25 27.81 257.42"></polygon>
    <path class="cls-2" d="M64.89,233.16l59.82,9.49v29.54s-59.82,9.49-59.82,9.49l-36.1-24.26,36.1-24.26M64.64,232.02l-37.8,25.4,37.8,25.4,61.16-9.7v-31.4s-61.16-9.7-61.16-9.7h0Z"></path>
  </g>
  <g>
    <polygon class="cls-3" points="356.88 381.63 337.06 354.34 348.93 342.48 376.22 362.29 380.94 386.35 356.88 381.63"></polygon>
    <path class="cls-2" d="M348.96,342.87l26.99,19.6,4.61,23.5-23.5-4.61-19.6-26.99,11.5-11.5M348.9,342.08l-12.23,12.23,20.04,27.59,24.61,4.83-4.83-24.61-27.59-20.04h0Z"></path>
  </g>
  <g>
    <polygon class="cls-3" points="127.56 152.32 122.85 128.26 146.9 132.98 166.72 160.27 154.85 172.13 127.56 152.32"></polygon>
    <path class="cls-2" d="M123.23,128.64l23.5,4.61,19.6,26.99-11.5,11.5-26.99-19.6-4.61-23.5M122.47,127.88l4.83,24.61,27.59,20.04,12.23-12.23-20.04-27.59-24.61-4.83h0Z"></path>
  </g>
  <g>
    <polygon class="cls-3" points="130.03 364.37 157.32 344.55 169.18 356.42 149.37 383.71 125.31 388.43 130.03 364.37"></polygon>
    <path class="cls-2" d="M157.29,344.95l11.5,11.5-19.6,26.99-23.5,4.61,4.61-23.5,26.99-19.6M157.35,344.16l-27.59,20.04-4.83,24.61,24.61-4.83,20.04-27.59-12.23-12.23h0Z"></path>
  </g>
  <g>
    <polygon class="cls-3" points="339.95 161.92 359.77 134.63 383.82 129.91 379.11 153.97 351.82 173.79 339.95 161.92"></polygon>
    <path class="cls-2" d="M383.44,130.29l-4.61,23.5-26.99,19.6-11.5-11.5,19.6-26.99,23.5-4.61M384.2,129.54l-24.61,4.83-20.04,27.59,12.23,12.23,27.59-20.04,4.83-24.61h0Z"></path>
  </g>
</svg><style>@media (prefers-color-scheme: light) { :root { filter: none; } }
</style></svg>